<svg width="547" height="395" viewBox="0 0 547 395" fill="none" xmlns="http://www.w3.org/2000/svg">
<circle cx="279.5" cy="197.5" r="197.5" fill="#FF0000"/>
<rect y="122" width="547" height="188" fill="white"/>
<path d="M27.2109 286.023L52.0156 148.621C52.1458 148.1 52.4714 147.84 52.9922 147.84H81.9961C82.5169 147.84 82.8424 148.1 82.9727 148.621L106.801 286.023C106.866 286.674 106.605 287 106.02 287H83.8516C83.2005 287 82.8424 286.674 82.7773 286.023L80.6289 271.375H53.3828L51.2344 286.023C51.1693 286.674 50.8438 287 50.2578 287H27.9922C27.4714 287 27.2109 286.674 27.2109 286.023ZM66.3711 193.836L57.3867 249.988H76.625L68.4219 193.836L67.25 186.414L66.3711 193.836ZM141.078 287H121.059C120.017 287 119.496 286.544 119.496 285.633L119.301 149.402C119.301 148.361 119.822 147.84 120.863 147.84H138.93L172.719 226.648L171.742 149.402C171.742 148.361 172.328 147.84 173.5 147.84H193.324C194.105 147.84 194.496 148.361 194.496 149.402L194.691 285.828C194.691 286.609 194.366 287 193.715 287H176.137L141.469 213.367L142.934 285.438C142.934 286.479 142.315 287 141.078 287ZM235.707 287H213.051C212.4 287 212.074 286.674 212.074 286.023L212.27 148.621C212.27 148.1 212.53 147.84 213.051 147.84H235.512C236.033 147.84 236.293 148.1 236.293 148.621L236.488 286.023C236.488 286.674 236.228 287 235.707 287ZM290.883 288.953C283.656 288.953 277.048 287.13 271.059 283.484C265.134 279.839 260.414 274.956 256.898 268.836C253.448 262.651 251.723 255.783 251.723 248.23L251.918 185.828C251.918 178.406 253.611 171.701 256.996 165.711C260.382 159.656 265.036 154.806 270.961 151.16C276.951 147.449 283.591 145.594 290.883 145.594C298.305 145.594 304.913 147.384 310.707 150.965C316.566 154.546 321.221 159.396 324.672 165.516C328.188 171.57 329.945 178.341 329.945 185.828V195.008C329.945 195.529 329.685 195.789 329.164 195.789H306.703C306.182 195.789 305.922 195.529 305.922 195.008V185.828C305.922 181.401 304.49 177.592 301.625 174.402C298.76 171.212 295.18 169.617 290.883 169.617C286.13 169.617 282.484 171.245 279.945 174.5C277.406 177.755 276.137 181.531 276.137 185.828V248.23C276.137 253.113 277.569 257.117 280.434 260.242C283.298 263.302 286.781 264.832 290.883 264.832C295.18 264.832 298.76 263.139 301.625 259.754C304.49 256.303 305.922 252.462 305.922 248.23V238.953C305.922 238.432 306.182 238.172 306.703 238.172H329.359C329.88 238.172 330.141 238.432 330.141 238.953V248.23C330.141 255.717 328.383 262.553 324.867 268.738C321.286 274.858 316.566 279.773 310.707 283.484C304.848 287.13 298.24 288.953 290.883 288.953ZM381.703 288.953C374.607 288.953 368.064 287.13 362.074 283.484C356.15 279.839 351.365 274.988 347.719 268.934C344.138 262.814 342.348 256.108 342.348 248.816L342.543 185.438C342.543 178.016 344.333 171.342 347.914 165.418C351.43 159.428 356.182 154.643 362.172 151.062C368.161 147.417 374.672 145.594 381.703 145.594C388.995 145.594 395.538 147.384 401.332 150.965C407.191 154.546 411.879 159.363 415.395 165.418C418.975 171.408 420.766 178.081 420.766 185.438L420.961 248.816C420.961 256.108 419.203 262.781 415.688 268.836C412.107 274.956 407.354 279.839 401.43 283.484C395.505 287.13 388.93 288.953 381.703 288.953ZM381.703 264.832C385.74 264.832 389.255 263.204 392.25 259.949C395.245 256.629 396.742 252.918 396.742 248.816L396.547 185.438C396.547 181.01 395.147 177.267 392.348 174.207C389.548 171.147 386 169.617 381.703 169.617C377.602 169.617 374.086 171.115 371.156 174.109C368.227 177.104 366.762 180.88 366.762 185.438V248.816C366.762 253.178 368.227 256.954 371.156 260.145C374.086 263.27 377.602 264.832 381.703 264.832ZM457.875 287H437.855C436.814 287 436.293 286.544 436.293 285.633L436.098 149.402C436.098 148.361 436.618 147.84 437.66 147.84H455.727L489.516 226.648L488.539 149.402C488.539 148.361 489.125 147.84 490.297 147.84H510.121C510.902 147.84 511.293 148.361 511.293 149.402L511.488 285.828C511.488 286.609 511.163 287 510.512 287H492.934L458.266 213.367L459.73 285.438C459.73 286.479 459.112 287 457.875 287Z" fill="black"/>
<path d="M27.2109 286.023L23.2746 285.313L23.2109 285.665V286.023H27.2109ZM52.0156 148.621L48.1351 147.651L48.1028 147.78L48.0793 147.91L52.0156 148.621ZM82.9727 148.621L86.9138 147.938L86.8888 147.793L86.8532 147.651L82.9727 148.621ZM106.801 286.023L110.781 285.625L110.767 285.482L110.742 285.34L106.801 286.023ZM82.7773 286.023L86.7575 285.625L86.7483 285.534L86.735 285.443L82.7773 286.023ZM80.6289 271.375L84.5866 270.795L84.085 267.375H80.6289V271.375ZM53.3828 271.375V267.375H49.9267L49.4252 270.795L53.3828 271.375ZM51.2344 286.023L47.2767 285.443L47.2634 285.534L47.2542 285.625L51.2344 286.023ZM66.3711 193.836L70.3209 194.468L70.3337 194.387L70.3433 194.306L66.3711 193.836ZM57.3867 249.988L53.437 249.356L52.6958 253.988H57.3867V249.988ZM76.625 249.988V253.988H81.2518L80.583 249.41L76.625 249.988ZM68.4219 193.836L72.3799 193.258L72.3765 193.235L72.3729 193.212L68.4219 193.836ZM67.25 186.414L71.2011 185.79L63.2778 185.944L67.25 186.414ZM31.1473 286.734L55.952 149.332L48.0793 147.91L23.2746 285.313L31.1473 286.734ZM55.8962 149.591C55.8104 149.934 55.5521 150.602 54.8562 151.159C54.1477 151.725 53.4082 151.84 52.9922 151.84V143.84C52.0553 143.84 50.8927 144.084 49.8586 144.912C48.8372 145.729 48.351 146.787 48.1351 147.651L55.8962 149.591ZM52.9922 151.84H81.9961V143.84H52.9922V151.84ZM81.9961 151.84C81.58 151.84 80.8406 151.725 80.1321 151.159C79.4361 150.602 79.1778 149.934 79.0921 149.591L86.8532 147.651C86.6373 146.787 86.1511 145.729 85.1296 144.912C84.0956 144.084 82.933 143.84 81.9961 143.84V151.84ZM79.0315 149.305L102.86 286.707L110.742 285.34L86.9138 147.938L79.0315 149.305ZM102.821 286.421C102.806 286.279 102.72 285.271 103.531 284.257C104.433 283.129 105.616 283 106.02 283V291C107.009 291 108.615 290.708 109.778 289.255C110.849 287.915 110.86 286.418 110.781 285.625L102.821 286.421ZM106.02 283H83.8516V291H106.02V283ZM83.8516 283C84.1722 283 85.0054 283.087 85.7854 283.796C86.5625 284.503 86.7267 285.318 86.7575 285.625L78.7972 286.421C78.8931 287.38 79.2689 288.684 80.404 289.716C81.5421 290.75 82.8799 291 83.8516 291V283ZM86.735 285.443L84.5866 270.795L76.6712 271.955L78.8197 286.604L86.735 285.443ZM80.6289 267.375H53.3828V275.375H80.6289V267.375ZM49.4252 270.795L47.2767 285.443L55.192 286.604L57.3405 271.955L49.4252 270.795ZM47.2542 285.625C47.2756 285.412 47.3962 284.644 48.113 283.927C48.8909 283.15 49.7938 283 50.2578 283V291C51.3078 291 52.6664 290.688 53.7698 289.584C54.8122 288.542 55.1281 287.286 55.2145 286.421L47.2542 285.625ZM50.2578 283H27.9922V291H50.2578V283ZM27.9922 283C28.6146 283 29.715 283.239 30.5297 284.257C31.2081 285.105 31.2109 285.922 31.2109 286.023H23.2109C23.2109 286.776 23.344 288.081 24.2828 289.255C25.3579 290.599 26.8489 291 27.9922 291V283ZM62.4213 193.204L53.437 249.356L61.3365 250.62L70.3209 194.468L62.4213 193.204ZM57.3867 253.988H76.625V245.988H57.3867V253.988ZM80.583 249.41L72.3799 193.258L64.4639 194.414L72.667 250.566L80.583 249.41ZM72.3729 193.212L71.2011 185.79L63.2989 187.038L64.4708 194.46L72.3729 193.212ZM63.2778 185.944L62.3988 193.366L70.3433 194.306L71.2222 186.884L63.2778 185.944ZM119.496 285.633H123.496L123.496 285.627L119.496 285.633ZM119.301 149.402H115.301L115.301 149.408L119.301 149.402ZM138.93 147.84L142.606 146.264L141.567 143.84H138.93V147.84ZM172.719 226.648L169.042 228.225L176.718 226.598L172.719 226.648ZM171.742 149.402H167.742V149.428L167.743 149.453L171.742 149.402ZM194.496 149.402H190.496V149.408L194.496 149.402ZM194.691 285.828H198.691V285.822L194.691 285.828ZM176.137 287L172.518 288.704L173.599 291H176.137V287ZM141.469 213.367L145.088 211.663L137.47 213.448L141.469 213.367ZM142.934 285.438H146.934V285.397L146.933 285.356L142.934 285.438ZM141.078 283H121.059V291H141.078V283ZM121.059 283C121.077 283 121.241 283.001 121.495 283.075C121.761 283.152 122.142 283.317 122.521 283.648C123.383 284.402 123.496 285.323 123.496 285.633H115.496C115.496 286.854 115.87 288.458 117.253 289.669C118.534 290.789 120.043 291 121.059 291V283ZM123.496 285.627L123.301 149.397L115.301 149.408L115.496 285.639L123.496 285.627ZM123.301 149.402C123.301 149.498 123.274 150.305 122.52 151.059C121.766 151.813 120.959 151.84 120.863 151.84V143.84C119.726 143.84 118.138 144.127 116.863 145.402C115.588 146.677 115.301 148.265 115.301 149.402H123.301ZM120.863 151.84H138.93V143.84H120.863V151.84ZM135.253 149.416L169.042 228.225L176.395 225.072L142.606 146.264L135.253 149.416ZM176.718 226.598L175.742 149.352L167.743 149.453L168.719 226.699L176.718 226.598ZM175.742 149.402C175.742 149.628 175.657 150.493 174.839 151.22C174.479 151.541 174.116 151.699 173.867 151.773C173.746 151.809 173.651 151.825 173.592 151.832C173.533 151.84 173.5 151.84 173.5 151.84V143.84C172.406 143.84 170.838 144.073 169.524 145.241C168.12 146.489 167.742 148.135 167.742 149.402H175.742ZM173.5 151.84H193.324V143.84H173.5V151.84ZM193.324 151.84C193.079 151.84 192.676 151.799 192.212 151.593C191.725 151.376 191.308 151.037 191.003 150.63C190.45 149.893 190.496 149.266 190.496 149.402H198.496C198.496 148.497 198.347 147.088 197.403 145.83C196.297 144.356 194.691 143.84 193.324 143.84V151.84ZM190.496 149.408L190.691 285.834L198.691 285.822L198.496 149.397L190.496 149.408ZM190.691 285.828C190.691 285.762 190.69 284.967 191.374 284.146C192.175 283.186 193.213 283 193.715 283V291C194.868 291 196.394 290.619 197.52 289.268C198.53 288.056 198.691 286.676 198.691 285.828H190.691ZM193.715 283H176.137V291H193.715V283ZM179.756 285.296L145.088 211.663L137.85 215.071L172.518 288.704L179.756 285.296ZM137.47 213.448L138.934 285.519L146.933 285.356L145.468 213.286L137.47 213.448ZM138.934 285.438C138.934 285.144 139.053 284.257 139.893 283.55C140.601 282.953 141.232 283 141.078 283V291C142.162 291 143.719 290.786 145.046 289.669C146.505 288.441 146.934 286.772 146.934 285.438H138.934ZM212.074 286.023L208.074 286.018V286.023H212.074ZM212.27 148.621L216.27 148.627V148.621H212.27ZM236.293 148.621H232.293V148.627L236.293 148.621ZM236.488 286.023H240.488V286.018L236.488 286.023ZM235.707 283H213.051V291H235.707V283ZM213.051 283C213.342 283 214.295 283.075 215.147 283.927C215.999 284.779 216.074 285.732 216.074 286.023H208.074C208.074 286.966 208.312 288.407 209.49 289.584C210.667 290.762 212.109 291 213.051 291V283ZM216.074 286.029L216.27 148.627L208.27 148.615L208.074 286.018L216.074 286.029ZM216.27 148.621C216.27 148.977 216.178 149.979 215.293 150.864C214.409 151.748 213.407 151.84 213.051 151.84V143.84C212.174 143.84 210.781 144.062 209.636 145.207C208.491 146.352 208.27 147.744 208.27 148.621H216.27ZM213.051 151.84H235.512V143.84H213.051V151.84ZM235.512 151.84C235.156 151.84 234.154 151.748 233.269 150.864C232.385 149.979 232.293 148.977 232.293 148.621H240.293C240.293 147.744 240.071 146.352 238.926 145.207C237.781 144.062 236.389 143.84 235.512 143.84V151.84ZM232.293 148.627L232.488 286.029L240.488 286.018L240.293 148.615L232.293 148.627ZM232.488 286.023C232.488 285.922 232.491 285.105 233.169 284.257C233.984 283.239 235.085 283 235.707 283V291C236.85 291 238.341 290.599 239.416 289.255C240.355 288.081 240.488 286.776 240.488 286.023H232.488ZM271.059 283.484L268.962 286.891L268.97 286.896L268.979 286.901L271.059 283.484ZM256.898 268.836L253.405 270.785L253.418 270.807L253.43 270.828L256.898 268.836ZM251.723 248.23L247.723 248.218V248.23H251.723ZM251.918 185.828L255.918 185.841V185.828H251.918ZM256.996 165.711L260.478 167.679L260.483 167.671L260.487 167.663L256.996 165.711ZM270.961 151.16L273.057 154.567L273.068 154.56L270.961 151.16ZM310.707 150.965L308.604 154.368L308.613 154.373L308.621 154.378L310.707 150.965ZM324.672 165.516L321.188 167.48L321.2 167.502L321.213 167.524L324.672 165.516ZM280.434 260.242L277.485 262.945L277.499 262.961L277.514 262.976L280.434 260.242ZM301.625 259.754L304.679 262.338L304.691 262.323L304.703 262.309L301.625 259.754ZM324.867 268.738L328.32 270.758L328.332 270.737L328.345 270.715L324.867 268.738ZM310.707 283.484L312.82 286.881L312.834 286.872L312.847 286.864L310.707 283.484ZM290.883 284.953C284.366 284.953 278.481 283.32 273.138 280.068L268.979 286.901C275.615 290.941 282.946 292.953 290.883 292.953V284.953ZM273.155 280.078C267.807 276.787 263.555 272.394 260.367 266.843L253.43 270.828C257.273 277.518 262.461 282.89 268.962 286.891L273.155 280.078ZM260.392 266.887C257.296 261.338 255.723 255.147 255.723 248.23H247.723C247.723 256.418 249.6 263.965 253.405 270.785L260.392 266.887ZM255.723 248.243L255.918 185.841L247.918 185.816L247.723 248.218L255.723 248.243ZM255.918 185.828C255.918 179.04 257.459 173.021 260.478 167.679L253.514 163.743C249.763 170.38 247.918 177.772 247.918 185.828H255.918ZM260.487 167.663C263.539 162.206 267.713 157.856 273.057 154.567L268.865 147.754C262.36 151.756 257.224 157.106 253.505 163.759L260.487 167.663ZM273.068 154.56C278.402 151.256 284.308 149.594 290.883 149.594V141.594C282.874 141.594 275.499 143.643 268.854 147.76L273.068 154.56ZM290.883 149.594C297.631 149.594 303.498 151.212 308.604 154.368L312.81 147.562C306.327 143.556 298.978 141.594 290.883 141.594V149.594ZM308.621 154.378C313.885 157.595 318.064 161.94 321.188 167.48L328.156 163.551C324.379 156.851 319.248 151.497 312.793 147.552L308.621 154.378ZM321.213 167.524C324.349 172.926 325.945 178.996 325.945 185.828H333.945C333.945 177.686 332.026 170.214 328.131 163.507L321.213 167.524ZM325.945 185.828V195.008H333.945V185.828H325.945ZM325.945 195.008C325.945 194.652 326.037 193.65 326.922 192.765C327.806 191.881 328.808 191.789 329.164 191.789V199.789C330.041 199.789 331.434 199.567 332.578 198.422C333.723 197.277 333.945 195.885 333.945 195.008H325.945ZM329.164 191.789H306.703V199.789H329.164V191.789ZM306.703 191.789C307.059 191.789 308.061 191.881 308.946 192.765C309.83 193.65 309.922 194.652 309.922 195.008H301.922C301.922 195.885 302.144 197.277 303.289 198.422C304.434 199.567 305.826 199.789 306.703 199.789V191.789ZM309.922 195.008V185.828H301.922V195.008H309.922ZM309.922 185.828C309.922 180.45 308.148 175.68 304.601 171.73L298.649 177.075C300.831 179.505 301.922 182.352 301.922 185.828H309.922ZM304.601 171.73C300.976 167.693 296.312 165.617 290.883 165.617V173.617C294.047 173.617 296.545 174.732 298.649 177.075L304.601 171.73ZM290.883 165.617C285.108 165.617 280.209 167.658 276.791 172.04L283.099 176.96C284.76 174.832 287.152 173.617 290.883 173.617V165.617ZM276.791 172.04C273.68 176.028 272.137 180.679 272.137 185.828H280.137C280.137 182.383 281.132 179.482 283.099 176.96L276.791 172.04ZM272.137 185.828V248.23H280.137V185.828H272.137ZM272.137 248.23C272.137 253.952 273.842 258.971 277.485 262.945L283.382 257.539C281.296 255.264 280.137 252.275 280.137 248.23H272.137ZM277.514 262.976C281.116 266.824 285.647 268.832 290.883 268.832V260.832C287.915 260.832 285.481 259.781 283.354 257.508L277.514 262.976ZM290.883 268.832C296.399 268.832 301.082 266.588 304.679 262.338L298.571 257.17C296.439 259.69 293.96 260.832 290.883 260.832V268.832ZM304.703 262.309C308.125 258.187 309.922 253.454 309.922 248.23H301.922C301.922 251.471 300.854 254.42 298.547 257.199L304.703 262.309ZM309.922 248.23V238.953H301.922V248.23H309.922ZM309.922 238.953C309.922 239.309 309.83 240.311 308.946 241.196C308.061 242.08 307.059 242.172 306.703 242.172V234.172C305.826 234.172 304.434 234.394 303.289 235.539C302.144 236.684 301.922 238.076 301.922 238.953H309.922ZM306.703 242.172H329.359V234.172H306.703V242.172ZM329.359 242.172C329.003 242.172 328.001 242.08 327.117 241.196C326.232 240.311 326.141 239.309 326.141 238.953H334.141C334.141 238.076 333.919 236.684 332.774 235.539C331.629 234.394 330.236 234.172 329.359 234.172V242.172ZM326.141 238.953V248.23H334.141V238.953H326.141ZM326.141 248.23C326.141 255.062 324.545 261.211 321.39 266.762L328.345 270.715C332.221 263.896 334.141 256.373 334.141 248.23H326.141ZM321.415 266.718C318.149 272.299 313.874 276.744 308.567 280.105L312.847 286.864C319.259 282.803 324.424 277.417 328.32 270.758L321.415 266.718ZM308.594 280.088C303.411 283.313 297.544 284.953 290.883 284.953V292.953C298.935 292.953 306.284 290.947 312.82 286.881L308.594 280.088ZM362.074 283.484L359.978 286.891L359.986 286.896L359.994 286.901L362.074 283.484ZM347.719 268.934L344.266 270.954L344.279 270.975L344.292 270.997L347.719 268.934ZM342.348 248.816L338.348 248.804V248.816H342.348ZM342.543 185.438L346.543 185.45V185.438H342.543ZM347.914 165.418L351.337 167.487L351.351 167.465L351.364 167.443L347.914 165.418ZM362.172 151.062L364.224 154.496L364.238 154.488L364.252 154.479L362.172 151.062ZM401.332 150.965L399.229 154.368L399.238 154.373L399.246 154.378L401.332 150.965ZM415.395 165.418L411.935 167.427L411.948 167.449L411.961 167.47L415.395 165.418ZM420.766 185.438H416.766L416.766 185.45L420.766 185.438ZM420.961 248.816H424.961L424.961 248.804L420.961 248.816ZM415.688 268.836L419.14 270.856L419.147 270.844L415.688 268.836ZM392.25 259.949L395.194 262.657L395.207 262.643L395.22 262.628L392.25 259.949ZM396.742 248.816H400.742L400.742 248.804L396.742 248.816ZM396.547 185.438H392.547L392.547 185.45L396.547 185.438ZM371.156 260.145L368.21 262.85L368.224 262.865L368.238 262.88L371.156 260.145ZM381.703 284.953C375.331 284.953 369.509 283.327 364.154 280.068L359.994 286.901C366.619 290.933 373.882 292.953 381.703 292.953V284.953ZM364.171 280.078C358.799 276.772 354.467 272.386 351.145 266.87L344.292 270.997C348.262 277.59 353.5 282.905 359.978 286.891L364.171 280.078ZM351.171 266.914C347.96 261.425 346.348 255.419 346.348 248.816H338.348C338.348 256.797 340.316 264.203 344.266 270.954L351.171 266.914ZM346.348 248.829L346.543 185.45L338.543 185.425L338.348 248.804L346.348 248.829ZM346.543 185.438C346.543 178.69 348.161 172.742 351.337 167.487L344.491 163.349C340.505 169.943 338.543 177.341 338.543 185.438H346.543ZM351.364 167.443C354.538 162.035 358.809 157.734 364.224 154.496L360.119 147.629C353.556 151.553 348.322 156.821 344.464 163.393L351.364 167.443ZM364.252 154.479C369.613 151.216 375.403 149.594 381.703 149.594V141.594C373.94 141.594 366.71 143.617 360.092 147.646L364.252 154.479ZM381.703 149.594C388.307 149.594 394.112 151.205 399.229 154.368L403.435 147.562C396.964 143.563 389.683 141.594 381.703 141.594V149.594ZM399.246 154.378C404.527 157.605 408.747 161.935 411.935 167.427L418.854 163.409C415.011 156.791 409.856 151.486 403.418 147.552L399.246 154.378ZM411.961 167.47C415.151 172.805 416.766 178.763 416.766 185.438H424.766C424.766 177.399 422.8 170.01 418.828 163.365L411.961 167.47ZM416.766 185.45L416.961 248.829L424.961 248.804L424.766 185.425L416.766 185.45ZM416.961 248.816C416.961 255.433 415.375 261.409 412.228 266.827L419.147 270.844C423.032 264.154 424.961 256.783 424.961 248.816H416.961ZM412.235 266.816C408.979 272.381 404.688 276.783 399.333 280.078L403.526 286.891C410.021 282.894 415.234 277.531 419.14 270.856L412.235 266.816ZM399.333 280.078C394.064 283.32 388.22 284.953 381.703 284.953V292.953C389.64 292.953 396.946 290.94 403.526 286.891L399.333 280.078ZM381.703 268.832C386.972 268.832 391.522 266.648 395.194 262.657L389.306 257.241C386.988 259.761 384.507 260.832 381.703 260.832V268.832ZM395.22 262.628C398.813 258.645 400.742 254 400.742 248.816H392.742C392.742 251.836 391.676 254.613 389.28 257.27L395.22 262.628ZM400.742 248.804L400.547 185.425L392.547 185.45L392.742 248.829L400.742 248.804ZM400.547 185.438C400.547 180.085 398.821 175.357 395.299 171.507L389.396 176.907C391.473 179.177 392.547 181.936 392.547 185.438H400.547ZM395.299 171.507C391.711 167.586 387.077 165.617 381.703 165.617V173.617C384.923 173.617 387.385 174.709 389.396 176.907L395.299 171.507ZM381.703 165.617C376.5 165.617 371.961 167.567 368.297 171.312L374.016 176.907C376.211 174.662 378.703 173.617 381.703 173.617V165.617ZM368.297 171.312C364.568 175.124 362.762 179.935 362.762 185.438H370.762C370.762 181.825 371.885 179.085 374.016 176.907L368.297 171.312ZM362.762 185.438V248.816H370.762V185.438H362.762ZM362.762 248.816C362.762 254.173 364.597 258.916 368.21 262.85L374.102 257.439C371.856 254.993 370.762 252.184 370.762 248.816H362.762ZM368.238 262.88C371.886 266.772 376.442 268.832 381.703 268.832V260.832C378.761 260.832 376.286 259.767 374.074 257.409L368.238 262.88ZM436.293 285.633H440.293V285.627L436.293 285.633ZM436.098 149.402H432.098V149.408L436.098 149.402ZM455.727 147.84L459.403 146.264L458.364 143.84H455.727V147.84ZM489.516 226.648L485.839 228.225L493.515 226.598L489.516 226.648ZM488.539 149.402H484.539V149.428L484.539 149.453L488.539 149.402ZM511.293 149.402H507.293V149.408L511.293 149.402ZM511.488 285.828H515.488V285.822L511.488 285.828ZM492.934 287L489.315 288.704L490.396 291H492.934V287ZM458.266 213.367L461.885 211.663L454.266 213.448L458.266 213.367ZM459.73 285.438H463.73V285.397L463.73 285.356L459.73 285.438ZM457.875 283H437.855V291H457.875V283ZM437.855 283C437.874 283 438.038 283.001 438.292 283.075C438.558 283.152 438.939 283.317 439.318 283.648C440.18 284.402 440.293 285.323 440.293 285.633H432.293C432.293 286.854 432.667 288.458 434.05 289.669C435.33 290.789 436.84 291 437.855 291V283ZM440.293 285.627L440.098 149.397L432.098 149.408L432.293 285.639L440.293 285.627ZM440.098 149.402C440.098 149.498 440.071 150.305 439.317 151.059C438.562 151.813 437.756 151.84 437.66 151.84V143.84C436.523 143.84 434.935 144.127 433.66 145.402C432.385 146.677 432.098 148.265 432.098 149.402H440.098ZM437.66 151.84H455.727V143.84H437.66V151.84ZM452.05 149.416L485.839 228.225L493.192 225.072L459.403 146.264L452.05 149.416ZM493.515 226.598L492.539 149.352L484.539 149.453L485.516 226.699L493.515 226.598ZM492.539 149.402C492.539 149.628 492.454 150.493 491.636 151.22C491.275 151.541 490.913 151.699 490.664 151.773C490.543 151.809 490.448 151.825 490.389 151.832C490.329 151.84 490.297 151.84 490.297 151.84V143.84C489.203 143.84 487.635 144.073 486.321 145.241C484.917 146.489 484.539 148.135 484.539 149.402H492.539ZM490.297 151.84H510.121V143.84H490.297V151.84ZM510.121 151.84C509.876 151.84 509.473 151.799 509.009 151.593C508.522 151.376 508.105 151.037 507.8 150.63C507.247 149.893 507.293 149.266 507.293 149.402H515.293C515.293 148.497 515.143 147.088 514.2 145.83C513.094 144.356 511.488 143.84 510.121 143.84V151.84ZM507.293 149.408L507.488 285.834L515.488 285.822L515.293 149.397L507.293 149.408ZM507.488 285.828C507.488 285.762 507.487 284.967 508.171 284.146C508.972 283.186 510.009 283 510.512 283V291C511.665 291 513.191 290.619 514.317 289.268C515.327 288.056 515.488 286.676 515.488 285.828H507.488ZM510.512 283H492.934V291H510.512V283ZM496.553 285.296L461.885 211.663L454.647 215.071L489.315 288.704L496.553 285.296ZM454.266 213.448L455.731 285.519L463.73 285.356L462.265 213.286L454.266 213.448ZM455.73 285.438C455.73 285.144 455.85 284.257 456.69 283.55C457.398 282.953 458.029 283 457.875 283V291C458.958 291 460.516 290.786 461.843 289.669C463.302 288.441 463.73 286.772 463.73 285.438H455.73Z" fill="white"/>
<path d="M232.8 43.4V85.45H236.65V47.2H261.6V85.25H265.55V43.4H232.8ZM235.35 60.75V64.45H263.25V60.75H235.35ZM235.3 78.45V82.2H263.35V78.45H235.3ZM277.2 50.55V54.35H320.85V50.55H277.2ZM287.2 72.85V76.65H310.5V72.85H287.2ZM296.95 40.05V86H300.9V40.05H296.95ZM295.8 51.8C291.8 61.4 283.85 70.7 275.5 75.05C276.35 75.8 277.6 77.2 278.2 78.15C286.85 73.1 294.7 63.55 299.15 52.95L295.8 51.8ZM302.15 51.95L298.8 53.1C303.2 63.6 310.9 73.15 319.75 78.05C320.35 77 321.65 75.5 322.6 74.7C313.95 70.55 306.1 61.45 302.15 51.95Z" fill="black"/>
<path d="M232.8 43.4V42.4H231.8V43.4H232.8ZM232.8 85.45H231.8V86.45H232.8V85.45ZM236.65 85.45V86.45H237.65V85.45H236.65ZM236.65 47.2V46.2H235.65V47.2H236.65ZM261.6 47.2H262.6V46.2H261.6V47.2ZM261.6 85.25H260.6V86.25H261.6V85.25ZM265.55 85.25V86.25H266.55V85.25H265.55ZM265.55 43.4H266.55V42.4H265.55V43.4ZM235.35 60.75V59.75H234.35V60.75H235.35ZM235.35 64.45H234.35V65.45H235.35V64.45ZM263.25 64.45V65.45H264.25V64.45H263.25ZM263.25 60.75H264.25V59.75H263.25V60.75ZM235.3 78.45V77.45H234.3V78.45H235.3ZM235.3 82.2H234.3V83.2H235.3V82.2ZM263.35 82.2V83.2H264.35V82.2H263.35ZM263.35 78.45H264.35V77.45H263.35V78.45ZM231.8 43.4V85.45H233.8V43.4H231.8ZM232.8 86.45H236.65V84.45H232.8V86.45ZM237.65 85.45V47.2H235.65V85.45H237.65ZM236.65 48.2H261.6V46.2H236.65V48.2ZM260.6 47.2V85.25H262.6V47.2H260.6ZM261.6 86.25H265.55V84.25H261.6V86.25ZM266.55 85.25V43.4H264.55V85.25H266.55ZM265.55 42.4H232.8V44.4H265.55V42.4ZM234.35 60.75V64.45H236.35V60.75H234.35ZM235.35 65.45H263.25V63.45H235.35V65.45ZM264.25 64.45V60.75H262.25V64.45H264.25ZM263.25 59.75H235.35V61.75H263.25V59.75ZM234.3 78.45V82.2H236.3V78.45H234.3ZM235.3 83.2H263.35V81.2H235.3V83.2ZM264.35 82.2V78.45H262.35V82.2H264.35ZM263.35 77.45H235.3V79.45H263.35V77.45ZM277.2 50.55V49.55H276.2V50.55H277.2ZM277.2 54.35H276.2V55.35H277.2V54.35ZM320.85 54.35V55.35H321.85V54.35H320.85ZM320.85 50.55H321.85V49.55H320.85V50.55ZM287.2 72.85V71.85H286.2V72.85H287.2ZM287.2 76.65H286.2V77.65H287.2V76.65ZM310.5 76.65V77.65H311.5V76.65H310.5ZM310.5 72.85H311.5V71.85H310.5V72.85ZM296.95 40.05V39.05H295.95V40.05H296.95ZM296.95 86H295.95V87H296.95V86ZM300.9 86V87H301.9V86H300.9ZM300.9 40.05H301.9V39.05H300.9V40.05ZM295.8 51.8L296.125 50.8542L295.238 50.5497L294.877 51.4154L295.8 51.8ZM275.5 75.05L275.038 74.1631L273.746 74.8361L274.838 75.7998L275.5 75.05ZM278.2 78.15L277.355 78.684L277.87 79.5005L278.704 79.0136L278.2 78.15ZM299.15 52.95L300.072 53.3371L300.486 52.3513L299.475 52.0042L299.15 52.95ZM302.15 51.95L303.073 51.5661L302.713 50.6994L301.825 51.0042L302.15 51.95ZM298.8 53.1L298.475 52.1542L297.465 52.5011L297.878 53.4865L298.8 53.1ZM319.75 78.05L319.266 78.9249L320.129 79.4027L320.618 78.5461L319.75 78.05ZM322.6 74.7L323.244 75.4649L324.428 74.4679L323.033 73.7984L322.6 74.7ZM276.2 50.55V54.35H278.2V50.55H276.2ZM277.2 55.35H320.85V53.35H277.2V55.35ZM321.85 54.35V50.55H319.85V54.35H321.85ZM320.85 49.55H277.2V51.55H320.85V49.55ZM286.2 72.85V76.65H288.2V72.85H286.2ZM287.2 77.65H310.5V75.65H287.2V77.65ZM311.5 76.65V72.85H309.5V76.65H311.5ZM310.5 71.85H287.2V73.85H310.5V71.85ZM295.95 40.05V86H297.95V40.05H295.95ZM296.95 87H300.9V85H296.95V87ZM301.9 86V40.05H299.9V86H301.9ZM300.9 39.05H296.95V41.05H300.9V39.05ZM294.877 51.4154C290.951 60.837 283.147 69.9389 275.038 74.1631L275.962 75.9369C284.553 71.4611 292.649 61.963 296.723 52.1846L294.877 51.4154ZM274.838 75.7998C275.633 76.5009 276.815 77.8303 277.355 78.684L279.045 77.616C278.385 76.5697 277.067 75.0991 276.162 74.3002L274.838 75.7998ZM278.704 79.0136C287.574 73.8353 295.554 64.0994 300.072 53.3371L298.228 52.5629C293.846 63.0006 286.126 72.3647 277.696 77.2864L278.704 79.0136ZM299.475 52.0042L296.125 50.8542L295.475 52.7458L298.825 53.8958L299.475 52.0042ZM301.825 51.0042L298.475 52.1542L299.125 54.0458L302.475 52.8958L301.825 51.0042ZM297.878 53.4865C302.343 64.1418 310.175 73.8914 319.266 78.9249L320.234 77.1751C311.625 72.4086 304.057 63.0582 299.722 52.7135L297.878 53.4865ZM320.618 78.5461C321.152 77.6127 322.37 76.2007 323.244 75.4649L321.956 73.9351C320.93 74.7993 319.548 76.3873 318.882 77.5539L320.618 78.5461ZM323.033 73.7984C314.644 69.7738 306.947 60.8834 303.073 51.5661L301.227 52.3339C305.253 62.0166 313.256 71.3262 322.167 75.6016L323.033 73.7984Z" fill="black"/>
</svg>
